# xmcd
#
# Track frame offsets: 
#        300
#        12258
#        33297
#        52920
#        64547
#        77909
#        96676
#        118487
#        134101
#        147624
#        170212
#        181169
#        195013
#        209562
#
# Disc length: 2985 seconds
#
# Revision: 0
# Processed by: cddbd v1.5.2PL0 Copyright (c) Steve Scherf et al.
# Submitted via: ExactAudioCopy v0.99pb5
#
DISCID=d60ba50e
DTITLE=Bob Margolin - Chicago Blues
DYEAR=1990
DGENRE=General Blues
TTITLE0=She's So Pretty
TTITLE1=She And The Devil
TTITLE2=Steady Rollin' Man
TTITLE3=Sugar Sweet
TTITLE4=Something Inside Of Me
TTITLE5=Dust My Broom
TTITLE6=Wee Wee Baby
TTITLE7=Rollin' And Tumblin'
TTITLE8=Mean Disposition
TTITLE9=Tribute To Howlin' Wolf
TTITLE10=Not What You Said Last Night
TTITLE11=Welcome Home
TTITLE12=Telephone Answering Machine Blues
TTITLE13=Born In The Wrong Time
EXTD=
EXTT0=
EXTT1=
EXTT2=
EXTT3=
EXTT4=
EXTT5=
EXTT6=
EXTT7=
EXTT8=
EXTT9=
EXTT10=
EXTT11=
EXTT12=
EXTT13=
PLAYORDER=
